# xmcd CD database file
#
# Track frame offsets:
#	150
#	23102
#	40465
#
# Disc length: 841 seconds
#
# Revision: 0
# Processed by: cddbd v1.5.1PL2 Copyright (c) Steve Scherf et al.
# Submitted via: CDex 1.51
#
DISCID=1e034703
DTITLE=森高千里 - 私のように
DYEAR=1999
DGENRE=JPop
TTITLE0=私のように
TTITLE1=SPACE
TTITLE2=私のように
EXTD=YEAR: 1999
EXTT0=
EXTT1=
EXTT2=
PLAYORDER=
